<svg width="25" height="25" viewBox="0 0 25 25" fill="none" xmlns="http://www.w3.org/2000/svg">
<path d="M3.74625 4.37C3.74625 4.20423 3.81209 4.04526 3.9293 3.92805C4.04651 3.81084 4.20548 3.745 4.37125 3.745H4.91875C5.8275 3.745 6.35 4.33625 6.6525 4.92624C6.85875 5.33 7.00749 5.82249 7.13124 6.24999H20C20.1931 6.25005 20.3836 6.29487 20.5566 6.38092C20.7295 6.46698 20.8801 6.59194 20.9966 6.74599C21.1131 6.90004 21.1923 7.07899 21.2281 7.26881C21.2638 7.45862 21.255 7.65413 21.2025 7.83999L19.3325 14.4337C19.1837 14.9569 18.8685 15.4172 18.4344 15.745C18.0004 16.0728 17.4714 16.2501 16.9275 16.25H10.5787C10.0303 16.2502 9.49709 16.07 9.06114 15.7373C8.6252 15.4046 8.31075 14.9378 8.16624 14.4087L7.36374 11.465C7.35914 11.4518 7.35497 11.4385 7.35125 11.425L6.06249 7.05375L5.93749 6.6325C5.81249 6.2 5.70249 5.81749 5.53749 5.49624C5.33874 5.10874 5.15625 4.99625 4.9175 4.99625H4.37C4.20423 4.99625 4.04526 4.9304 3.92805 4.81319C3.81084 4.69598 3.745 4.53701 3.745 4.37125L3.74625 4.37ZM8.55624 11.0875L9.37249 14.0825C9.44486 14.3469 9.60214 14.5802 9.8201 14.7464C10.0381 14.9126 10.3046 15.0026 10.5787 15.0025H16.9287C17.2005 15.0022 17.4649 14.9134 17.6816 14.7494C17.8984 14.5854 18.0558 14.3552 18.13 14.0937L20 7.49999H7.49999L8.55624 11.0875ZM12.5 19.3737C12.5 19.871 12.3025 20.3479 11.9508 20.6996C11.5992 21.0512 11.1223 21.2487 10.625 21.2487C10.1277 21.2487 9.6508 21.0512 9.29917 20.6996C8.94754 20.3479 8.74999 19.871 8.74999 19.3737C8.74999 18.8765 8.94754 18.3996 9.29917 18.0479C9.6508 17.6963 10.1277 17.4987 10.625 17.4987C11.1223 17.4987 11.5992 17.6963 11.9508 18.0479C12.3025 18.3996 12.5 18.8765 12.5 19.3737ZM11.25 19.3737C11.25 19.208 11.1841 19.049 11.0669 18.9318C10.9497 18.8146 10.7908 18.7487 10.625 18.7487C10.4592 18.7487 10.3003 18.8146 10.1831 18.9318C10.0658 19.049 9.99999 19.208 9.99999 19.3737C9.99999 19.5395 10.0658 19.6985 10.1831 19.8157C10.3003 19.9329 10.4592 19.9987 10.625 19.9987C10.7908 19.9987 10.9497 19.9329 11.0669 19.8157C11.1841 19.6985 11.25 19.5395 11.25 19.3737ZM18.75 19.3737C18.75 19.871 18.5525 20.3479 18.2008 20.6996C17.8492 21.0512 17.3723 21.2487 16.875 21.2487C16.3777 21.2487 15.9008 21.0512 15.5492 20.6996C15.1975 20.3479 15 19.871 15 19.3737C15 18.8765 15.1975 18.3996 15.5492 18.0479C15.9008 17.6963 16.3777 17.4987 16.875 17.4987C17.3723 17.4987 17.8492 17.6963 18.2008 18.0479C18.5525 18.3996 18.75 18.8765 18.75 19.3737ZM17.5 19.3737C17.5 19.208 17.4341 19.049 17.3169 18.9318C17.1997 18.8146 17.0408 18.7487 16.875 18.7487C16.7092 18.7487 16.5503 18.8146 16.4331 18.9318C16.3158 19.049 16.25 19.208 16.25 19.3737C16.25 19.5395 16.3158 19.6985 16.4331 19.8157C16.5503 19.9329 16.7092 19.9987 16.875 19.9987C17.0408 19.9987 17.1997 19.9329 17.3169 19.8157C17.4341 19.6985 17.5 19.5395 17.5 19.3737Z" fill="black"/>
</svg>
